<?xml version="1.0" standalone="no"?>
<!DOCTYPE svg PUBLIC "-//W3C//DTD SVG 20010904//EN"
 "http://www.w3.org/TR/2001/REC-SVG-20010904/DTD/svg10.dtd">
<svg version="1.0" xmlns="http://www.w3.org/2000/svg"
 width="63.438090pt" height="129.743910pt" viewBox="0 0 63.438090 129.743910"
 preserveAspectRatio="xMidYMid meet">
<metadata>
Created by Potrace Professional 1.1m
</metadata>
<g transform="translate(-67.280955,164.965753) rotate(-360.00) scale(0.095238,-0.095238)"
fill="#000000" stroke="none">
<path d="M910 1725 c-13 -12 -7 -48 9 -60 11 -8 17 -44 22 -137 l6 -126 -89
88 c-68 67 -89 94 -88 114 2 36 -29 55 -52 32 -21 -21 -12 -50 18 -58 14 -4
39 -42 78 -120 49 -96 58 -122 58 -172 l0 -57 168 0 168 0 0 57 c-1 50 8 76
57 172 39 78 64 116 78 120 30 8 39 37 18 58 -23 23 -54 4 -52 -32 1 -20 -20
-47 -88 -114 l-89 -88 6 126 c5 93 11 129 22 137 18 14 21 52 5 62 -32 20 -69
-26 -42 -53 10 -10 -70 -235 -84 -235 -14 0 -93 225 -83 235 16 16 12 45 -7
52 -21 8 -30 8 -39 -1z"/>
<path d="M874 1195 c-10 -9 -13 -103 -13 -355 0 -319 1 -344 19 -361 16 -14
44 -17 161 -17 124 0 144 2 160 19 15 17 17 58 17 360 0 252 -3 345 -13 354
-17 17 -314 17 -331 0z m103 -50 c0 -6 -3 -11 -5 -11 -3 0 -8 5 -11 11 -4 5
-2 10 4 10 6 0 12 -5 12 -10z m105 0 c0 -6 -19 -11 -42 -11 -24 0 -42 5 -42
11 0 5 18 10 42 10 23 0 42 -5 42 -10z m123 -318 l3 -281 -168 0 -168 0 0 277
c0 152 3 279 7 283 4 4 78 6 165 5 l158 -3 3 -281z m-146 -305 c9 -11 8 -19
-2 -34 -16 -21 -50 -15 -48 8 0 10 2 10 6 0 7 -18 31 -16 39 2 7 19 -10 31
-31 23 -9 -4 -13 -2 -10 4 9 15 32 13 46 -3z"/>
<path d="M885 399 c0 -26 2 -37 4 -24 3 13 3 35 0 48 -2 13 -4 2 -4 -24z"/>
<path d="M916 404 c0 -23 2 -33 5 -23 2 10 10 18 17 18 9 0 9 3 1 8 -7 4 -15
15 -18 24 -3 8 -6 -4 -5 -27z"/>
<path d="M1048 410 c-3 -18 -1 -32 4 -32 5 0 9 14 9 32 0 17 -2 31 -5 31 -2 0
-6 -14 -8 -31z"/>
<path d="M1092 410 c0 -18 5 -32 11 -32 5 0 10 14 10 32 0 17 -5 31 -10 31 -6
0 -11 -14 -11 -31z"/>
<path d="M1156 410 c-1 -29 2 -34 10 -21 9 11 13 12 17 2 3 -7 11 -13 18 -13
6 1 2 9 -10 19 -12 10 -25 25 -28 34 -4 8 -7 -1 -7 -21z"/>
<path d="M982 408 c11 -13 22 -27 23 -29 2 -3 3 2 3 10 0 9 -11 22 -24 30
l-23 14 21 -25z"/>
</g>
</svg>
