<?xml version="1.0" encoding="utf-8"?>
<!-- Generator: Adobe Illustrator 25.4.1, SVG Export Plug-In . SVG Version: 6.00 Build 0)  -->
<svg version="1.1" id="Layer_1" xmlns="http://www.w3.org/2000/svg" xmlns:xlink="http://www.w3.org/1999/xlink" x="0px" y="0px"
	 viewBox="0 0 357.3 833.6" style="enable-background:new 0 0 357.3 833.6;" xml:space="preserve">
<style type="text/css">
	.st0{display:none;fill:#42056D;}
	.st1{fill:#42056D;}
	.st2{fill-rule:evenodd;clip-rule:evenodd;fill:#42056D;}
	.st3{font-family:'CambriaMath';}
	.st4{font-size:54px;}
	.st5{letter-spacing:2;}
	.st6{letter-spacing:1;}
	.st7{display:none;}
	.st8{display:inline;}
</style>
<path class="st0" d="M346,47.4c-9.4-4.1-20.4,0.2-24.5,9.7c-3.1,7.1-1.5,15.4,4.1,20.8l-95.7,97.8l-2.1-1.5l6.9-136.9
	c0.3,0,0.6,0.1,0.9,0.1c10.4,0.1,18.9-8.3,19-18.7c0.1-10.4-8.3-18.9-18.7-19c-10.4-0.1-18.9,8.3-19,18.7c-0.1,7.8,4.7,14.8,12,17.7
	l-49.3,127.8l-1.3-0.3l-0.9,0.2L128.3,36c9.5-3.8,14.2-14.5,10.5-24.1C135,2.4,124.3-2.3,114.7,1.5c-9.5,3.8-14.2,14.5-10.5,24.1
	c2.8,7.1,9.7,11.8,17.4,11.8c0.3,0,0.6-0.1,0.9-0.1l6.9,136.9l-2.1,1.5L31.7,77.9c7.3-7.2,7.3-19,0.1-26.2c-7.2-7.3-19-7.3-26.2-0.1
	c-7.3,7.2-7.3,19-0.1,26.2c5.4,5.4,13.6,7,20.6,3.9c0.3-0.1,0.5-0.3,0.8-0.5l61.8,125.6v61.7h179.6v-62l0.4,0.3l61.8-125.5
	c0.3,0.1,0.5,0.3,0.8,0.5c9.5,4.1,20.4-0.3,24.5-9.8C359.9,62.5,355.5,51.5,346,47.4L346,47.4z"/>
<g>
	<path class="st1" d="M323.7,198.9c-4,0-7.7,1.4-10.6,3.6c-18-19.5-58.2-48.5-115-5.4c-18.7-68.5-54.5-90.3-75.7-97.3
		c0.2-1.1,0.3-2.1,0.3-3.2c0-9.6-7.8-17.3-17.3-17.3c-9.6,0-17.3,7.8-17.3,17.3s7.8,17.3,17.3,17.3c6.3,0,11.9-3.4,14.9-8.5
		c43.2,31.8,39.7,91.7,39.7,91.7c-56.8-43-96.9-14.2-114.9,5.3c-3.1-2.7-7.1-4.4-11.6-4.4c-9.6,0-17.3,7.8-17.3,17.3
		c0,9.6,7.8,17.3,17.3,17.3s17.3-7.8,17.3-17.3c0-2.5-0.5-4.8-1.4-6.9c91-39.5,85.9,74,85.9,74h89.2c0,0-6.7-113,83.8-74.1
		c-1.2,2.4-1.9,5.1-1.9,7.9c0,9.6,7.8,17.3,17.3,17.3c9.6,0,17.3-7.8,17.3-17.3C341,206.7,333.3,198.9,323.7,198.9L323.7,198.9z"/>
</g>
<path class="st2" d="M246.4,653.4H110.8c-13.2,0-23.9-10.7-23.9-23.9V302.4c0-13.2,10.7-23.9,23.9-23.9h135.6
	c13.2,0,23.9,10.7,23.9,23.9v327.1C270.3,642.7,259.6,653.4,246.4,653.4L246.4,653.4L246.4,653.4z M178.6,645.4c8.8,0,16-7.2,16-16
	s-7.2-16-16-16s-16,7.2-16,16c0,8.8,7.1,16,15.9,16C178.5,645.4,178.6,645.4,178.6,645.4L178.6,645.4z M146.7,298.4
	c-2.2,0-4,1.8-4,4s1.8,4,4,4s4-1.8,4-4S148.9,298.4,146.7,298.4L146.7,298.4L146.7,298.4z M178.6,282.4c-2.2,0-4,1.8-4,4s1.8,4,4,4
	s4-1.8,4-4C182.6,284.2,180.8,282.4,178.6,282.4L178.6,282.4z M194.6,298.4h-32c-2.2,0-4,1.8-4,4s1.8,4,4,4h31.9c2.2,0,4-1.8,4-4
	S196.8,298.4,194.6,298.4L194.6,298.4z M258.3,318.3H98.8v287.2h159.5V318.3z M178.6,617.5c6.6,0,12,5.4,12,12s-5.4,12-12,12
	s-12-5.4-12-12S172,617.5,178.6,617.5L178.6,617.5z"/>
<text transform="matrix(1 0 0 1 86.85 700.53)" class="st1 st3 st4 st5">JE</text>
<text transform="matrix(1 0 0 1 139.44 700.53)" class="st1 st3 st4 st6">S</text>
<text transform="matrix(1 0 0 1 168.05 700.53)" class="st1 st3 st4 st5">TER</text>
<g class="st7">
	<path class="st8" d="M306.2,182.3c-5.8,0-10.9,3-13.8,7.6c-40.3-31.2-81.3-7.2-81.3-7.2c-14-35.5,7.2-60.6,22-73
		c2.9,4.5,7.9,7.5,13.7,7.5c9,0,16.2-7.3,16.2-16.2s-7.3-16.2-16.2-16.2s-16.2,7.3-16.2,16.2c0,0.2,0,0.4,0,0.6
		c-75.1,7-81.7,73.6-81.7,73.6c-40.9-17.6-64.1-9.8-75.9-1.1c-2.8-4.9-8.1-8.2-14.1-8.2c-9,0-16.2,7.3-16.2,16.2
		c0,9,7.3,16.2,16.2,16.2c8,0,14.6-5.7,16-13.3c63.4,3.7,62.9,93.1,62.9,93.1h81.7l13-55.7c4.1-23.2,37.9-24.8,57.5-23.7
		c0.2,8.8,7.4,15.8,16.2,15.8c9,0,16.2-7.3,16.2-16.2S315.2,182.3,306.2,182.3L306.2,182.3z"/>
</g>
</svg>
