<svg id="Layer_1" data-name="Layer 1" xmlns="http://www.w3.org/2000/svg" viewBox="0 0 357.33 833.58"><defs><style>.cls-1,.cls-2,.cls-3{fill:#42056d;}.cls-2{fill-rule:evenodd;}.cls-3{font-size:54px;font-family:CambriaMath, Cambria Math;letter-spacing:0.05em;}.cls-4{letter-spacing:0.03em;}.cls-5{letter-spacing:0.05em;}</style></defs><path class="cls-1" d="M521.72,375.61a18.63,18.63,0,0,0-20.41,30.44L405.59,503.8l-2.09-1.52,6.94-136.85c.32,0,.62.1.94.1a18.81,18.81,0,1,0-6.7-1.29L355.39,492l-1.26-.27-.88.19L304,364.24a18.56,18.56,0,1,0-6.7,1.29c.32,0,.62-.08.94-.1l6.94,136.85-2.09,1.51-95.72-97.74a18.55,18.55,0,1,0-5.64,3.84c.3-.13.54-.32.82-.46L264.33,535v61.67H443.92v-62l.42.3,61.78-125.53c.29.14.53.33.83.46a18.66,18.66,0,0,0,14.77-34.28Z" transform="translate(-175.67 -328.2)"/><path class="cls-2" d="M422.07,981.61H286.45a23.94,23.94,0,0,1-23.93-23.94V630.59a23.94,23.94,0,0,1,23.93-23.93H422.07A23.93,23.93,0,0,1,446,630.59V957.67a23.94,23.94,0,0,1-23.94,23.94Zm-67.8-8a16,16,0,1,0-16-16A15.95,15.95,0,0,0,354.27,973.62Zm-31.91-347a4,4,0,1,0,4,4A4,4,0,0,0,322.36,626.61Zm31.91-16a4,4,0,1,0,4,4A4,4,0,0,0,354.27,610.65Zm16,16H338.31a4,4,0,1,0,0,8h31.91a4,4,0,1,0,0-8ZM434,646.55H274.49V933.74H434ZM354.27,945.7a12,12,0,1,1-12,12,12,12,0,0,1,12-12Z" transform="translate(-175.67 -328.2)"/><text class="cls-3" transform="translate(86.85 700.53)">JE<tspan class="cls-4" x="52.59" y="0">S</tspan><tspan class="cls-5" x="81.2" y="0">TER</tspan></text></svg>